<?xml version="1.0" encoding="utf-8"?>
<!-- Generator: Adobe Illustrator 24.0.1, SVG Export Plug-In . SVG Version: 6.00 Build 0)  -->
<svg version="1.1" id="Layer_1" xmlns="http://www.w3.org/2000/svg" xmlns:xlink="http://www.w3.org/1999/xlink" x="0px" y="0px"
	 viewBox="0 0 209.7 209.6" style="enable-background:new 0 0 209.7 209.6;" xml:space="preserve">
<style type="text/css">
	.st0{fill:#6B7091;}
</style>
<title>play icon_2</title>
<g id="Layer_2_1_">
	<g id="Layer_1-2">
		<path class="st0" d="M98.7,0H111c0.5,0.2,1,0.3,1.6,0.3c14.5,0.8,28.6,4.9,41.3,11.9c34.4,19.3,53.1,48.7,55.6,88.2
			c1.3,18.7-3,37.3-12.2,53.6c-19.4,34.6-49.1,53.2-88.7,55.5c-16.6,1-33.3-2.4-48.2-9.8c-32.2-15.8-51.9-41.4-58.7-76.7
			c-0.8-4-1.1-8.1-1.6-12.1V98.7c0.2-0.6,0.3-1.2,0.3-1.8c0.8-12.6,4-25,9.5-36.3c16.4-33.3,43-53.2,79.7-59.4
			C92.6,0.7,95.7,0.4,98.7,0z M104.8,17.5c-48.2,0-87.2,39.1-87.2,87.3s39.1,87.2,87.3,87.2c48.2,0,87.2-39.1,87.2-87.2
			C192.1,56.7,153,17.6,104.8,17.5C104.8,17.5,104.8,17.5,104.8,17.5z"/>
		<path class="st0" d="M87.6,104.9c0-10.1,0-20.2,0-30.3c0-2.5,0.5-4.6,2.8-5.9s4.4-0.4,6.4,1.1c13.9,10.2,27.8,20.3,41.7,30.3
			c4,2.9,4.1,6.7,0.1,9.7c-13.9,10.2-27.9,20.3-41.9,30.4c-2,1.4-4,2.2-6.3,1s-2.9-3.3-2.9-5.8C87.6,125.2,87.6,115.1,87.6,104.9z"
			/>
	</g>
</g>
</svg>
